<svg width="199" height="137" viewBox="0 0 199 137" fill="none" xmlns="http://www.w3.org/2000/svg">
<g filter="url(#filter0_di_39_61)">
<path d="M155.299 44.4615C155.299 65.7033 140.749 82.9231 122.799 82.9231C104.85 82.9231 90.2994 65.7033 90.2994 44.4615C90.2994 23.2198 104.85 6 122.799 6C140.749 6 155.299 23.2198 155.299 44.4615Z" fill="white"/>
<path d="M173.499 65.2308C173.499 80.1 163.314 92.1538 150.749 92.1538C138.185 92.1538 127.999 80.1 127.999 65.2308C127.999 50.3616 138.185 38.3077 150.749 38.3077C163.314 38.3077 173.499 50.3616 173.499 65.2308Z" fill="white"/>
<path d="M113.699 48.3077C113.699 63.1769 103.514 75.2308 90.9494 75.2308C78.3849 75.2308 68.1994 63.1769 68.1994 48.3077C68.1994 33.4385 78.3849 21.3846 90.9494 21.3846C103.514 21.3846 113.699 33.4385 113.699 48.3077Z" fill="white"/>
<path d="M153.999 71.3846C153.999 86.2538 128.681 98.3077 97.4494 98.3077C66.2177 98.3077 40.8994 86.2538 40.8994 71.3846C40.8994 56.5154 66.2177 44.4615 97.4494 44.4615C128.681 44.4615 153.999 56.5154 153.999 71.3846Z" fill="white"/>
<g filter="url(#filter1_d_39_61)">
<path d="M72.1 82.1536C72.1 90.2254 66.5707 96.7689 59.75 96.7689C52.9293 96.7689 47.4 90.2254 47.4 82.1536C47.4 74.0817 52.9293 67.5382 59.75 67.5382C66.5707 67.5382 72.1 74.0817 72.1 82.1536Z" fill="white"/>
<path d="M43.5 82.1536C43.5 88.5261 39.1348 93.692 33.75 93.692C28.3652 93.692 24 88.5261 24 82.1536C24 75.781 28.3652 70.6151 33.75 70.6151C39.1348 70.6151 43.5 75.781 43.5 82.1536Z" fill="white"/>
<path d="M63 74.4612C63 85.0821 55.7246 93.692 46.75 93.692C37.7754 93.692 30.5 85.0821 30.5 74.4612C30.5 63.8404 37.7754 55.2305 46.75 55.2305C55.7246 55.2305 63 63.8404 63 74.4612Z" fill="white"/>
</g>
<g filter="url(#filter2_d_39_61)">
<path d="M113.7 91.3845C113.7 99.4563 122.069 106 132.392 106C142.715 106 151.084 99.4563 151.084 91.3845C151.084 83.3126 142.715 76.7691 132.392 76.7691C122.069 76.7691 113.7 83.3126 113.7 91.3845Z" fill="white"/>
<path d="M156.986 91.3845C156.986 97.757 163.593 102.923 171.743 102.923C179.893 102.923 186.5 97.757 186.5 91.3845C186.5 85.012 179.893 79.846 171.743 79.846C163.593 79.846 156.986 85.012 156.986 91.3845Z" fill="white"/>
<path d="M127.473 83.6922C127.473 94.313 138.484 102.923 152.068 102.923C165.651 102.923 176.662 94.313 176.662 83.6922C176.662 73.0713 165.651 64.4614 152.068 64.4614C138.484 64.4614 127.473 73.0713 127.473 83.6922Z" fill="white"/>
</g>
</g>
<defs>
<filter id="filter0_di_39_61" x="16" y="0" width="182.5" height="120" filterUnits="userSpaceOnUse" color-interpolation-filters="sRGB">
<feFlood flood-opacity="0" result="BackgroundImageFix"/>
<feColorMatrix in="SourceAlpha" type="matrix" values="0 0 0 0 0 0 0 0 0 0 0 0 0 0 0 0 0 0 127 0" result="hardAlpha"/>
<feOffset dx="2" dy="4"/>
<feGaussianBlur stdDeviation="5"/>
<feComposite in2="hardAlpha" operator="out"/>
<feColorMatrix type="matrix" values="0 0 0 0 0 0 0 0 0 0 0 0 0 0 0 0 0 0 0.5 0"/>
<feBlend mode="normal" in2="BackgroundImageFix" result="effect1_dropShadow_39_61"/>
<feBlend mode="normal" in="SourceGraphic" in2="effect1_dropShadow_39_61" result="shape"/>
<feColorMatrix in="SourceAlpha" type="matrix" values="0 0 0 0 0 0 0 0 0 0 0 0 0 0 0 0 0 0 127 0" result="hardAlpha"/>
<feOffset dy="-5"/>
<feGaussianBlur stdDeviation="5"/>
<feComposite in2="hardAlpha" operator="arithmetic" k2="-1" k3="1"/>
<feColorMatrix type="matrix" values="0 0 0 0 0 0 0 0 0 0 0 0 0 0 0 0 0 0 0.5 0"/>
<feBlend mode="normal" in2="shape" result="effect2_innerShadow_39_61"/>
</filter>
<filter id="filter1_d_39_61" x="0" y="45.2305" width="98.0996" height="91.5386" filterUnits="userSpaceOnUse" color-interpolation-filters="sRGB">
<feFlood flood-opacity="0" result="BackgroundImageFix"/>
<feColorMatrix in="SourceAlpha" type="matrix" values="0 0 0 0 0 0 0 0 0 0 0 0 0 0 0 0 0 0 127 0" result="hardAlpha"/>
<feOffset dx="1" dy="15"/>
<feGaussianBlur stdDeviation="12.5"/>
<feComposite in2="hardAlpha" operator="out"/>
<feColorMatrix type="matrix" values="0 0 0 0 0 0 0 0 0 0 0 0 0 0 0 0 0 0 0.25 0"/>
<feBlend mode="normal" in2="BackgroundImageFix" result="effect1_dropShadow_39_61"/>
<feBlend mode="normal" in="SourceGraphic" in2="effect1_dropShadow_39_61" result="shape"/>
</filter>
<filter id="filter2_d_39_61" x="91.7002" y="55.4614" width="102.8" height="71.5386" filterUnits="userSpaceOnUse" color-interpolation-filters="sRGB">
<feFlood flood-opacity="0" result="BackgroundImageFix"/>
<feColorMatrix in="SourceAlpha" type="matrix" values="0 0 0 0 0 0 0 0 0 0 0 0 0 0 0 0 0 0 127 0" result="hardAlpha"/>
<feOffset dx="-7" dy="6"/>
<feGaussianBlur stdDeviation="7.5"/>
<feComposite in2="hardAlpha" operator="out"/>
<feColorMatrix type="matrix" values="0 0 0 0 0 0 0 0 0 0 0 0 0 0 0 0 0 0 0.25 0"/>
<feBlend mode="normal" in2="BackgroundImageFix" result="effect1_dropShadow_39_61"/>
<feBlend mode="normal" in="SourceGraphic" in2="effect1_dropShadow_39_61" result="shape"/>
</filter>
</defs>
</svg>
