<svg width="135" height="114" viewBox="0 0 135 114" fill="none" xmlns="http://www.w3.org/2000/svg">
<g filter="url(#filter0_di_39_61)">
<path d="M103.992 34.4615C103.992 50.1804 95.1271 62.9231 84.1919 62.9231C73.2567 62.9231 64.3919 50.1804 64.3919 34.4615C64.3919 18.7427 73.2567 6 84.1919 6C95.1271 6 103.992 18.7427 103.992 34.4615Z" fill="white"/>
<path d="M115.08 49.8308C115.08 60.834 108.875 69.7538 101.22 69.7538C93.5652 69.7538 87.3599 60.834 87.3599 49.8308C87.3599 38.8276 93.5652 29.9077 101.22 29.9077C108.875 29.9077 115.08 38.8276 115.08 49.8308Z" fill="white"/>
<path d="M78.6479 37.3077C78.6479 48.3109 72.4426 57.2308 64.7879 57.2308C57.1332 57.2308 50.9279 48.3109 50.9279 37.3077C50.9279 26.3045 57.1332 17.3846 64.7879 17.3846C72.4426 17.3846 78.6479 26.3045 78.6479 37.3077Z" fill="white"/>
<path d="M103.2 54.3846C103.2 65.3878 87.7752 74.3077 68.7479 74.3077C49.7206 74.3077 34.2959 65.3878 34.2959 54.3846C34.2959 43.3814 49.7206 34.4615 68.7479 34.4615C87.7752 34.4615 103.2 43.3814 103.2 54.3846Z" fill="white"/>
<g filter="url(#filter1_d_39_61)">
<path d="M53.304 62.3537C53.304 68.3269 49.9354 73.1691 45.78 73.1691C41.6246 73.1691 38.256 68.3269 38.256 62.3537C38.256 56.3806 41.6246 51.5384 45.78 51.5384C49.9354 51.5384 53.304 56.3806 53.304 62.3537Z" fill="white"/>
<path d="M35.88 62.3537C35.88 67.0694 33.2206 70.8922 29.94 70.8922C26.6594 70.8922 24 67.0694 24 62.3537C24 57.6381 26.6594 53.8153 29.94 53.8153C33.2206 53.8153 35.88 57.6381 35.88 62.3537Z" fill="white"/>
<path d="M47.76 56.6614C47.76 64.5209 43.3276 70.8922 37.86 70.8922C32.3924 70.8922 27.96 64.5209 27.96 56.6614C27.96 48.802 32.3924 42.4307 37.86 42.4307C43.3276 42.4307 47.76 48.802 47.76 56.6614Z" fill="white"/>
</g>
<g filter="url(#filter2_d_39_61)">
<path d="M78.648 69.1848C78.648 75.158 83.7464 80.0002 90.0357 80.0002C96.3249 80.0002 101.423 75.158 101.423 69.1848C101.423 63.2116 96.3249 58.3694 90.0357 58.3694C83.7464 58.3694 78.648 63.2116 78.648 69.1848Z" fill="white"/>
<path d="M105.019 69.1848C105.019 73.9005 109.045 77.7233 114.01 77.7233C118.975 77.7233 123 73.9005 123 69.1848C123 64.4691 118.975 60.6463 114.01 60.6463C109.045 60.6463 105.019 64.4691 105.019 69.1848Z" fill="white"/>
<path d="M87.0389 63.4925C87.0389 71.3519 93.7474 77.7233 102.023 77.7233C110.298 77.7233 117.006 71.3519 117.006 63.4925C117.006 55.6331 110.298 49.2617 102.023 49.2617C93.7474 49.2617 87.0389 55.6331 87.0389 63.4925Z" fill="white"/>
</g>
</g>
<defs>
<filter id="filter0_di_39_61" x="16" y="0" width="119" height="94" filterUnits="userSpaceOnUse" color-interpolation-filters="sRGB">
<feFlood flood-opacity="0" result="BackgroundImageFix"/>
<feColorMatrix in="SourceAlpha" type="matrix" values="0 0 0 0 0 0 0 0 0 0 0 0 0 0 0 0 0 0 127 0" result="hardAlpha"/>
<feOffset dx="2" dy="4"/>
<feGaussianBlur stdDeviation="5"/>
<feComposite in2="hardAlpha" operator="out"/>
<feColorMatrix type="matrix" values="0 0 0 0 0 0 0 0 0 0 0 0 0 0 0 0 0 0 0.5 0"/>
<feBlend mode="normal" in2="BackgroundImageFix" result="effect1_dropShadow_39_61"/>
<feBlend mode="normal" in="SourceGraphic" in2="effect1_dropShadow_39_61" result="shape"/>
<feColorMatrix in="SourceAlpha" type="matrix" values="0 0 0 0 0 0 0 0 0 0 0 0 0 0 0 0 0 0 127 0" result="hardAlpha"/>
<feOffset dy="-5"/>
<feGaussianBlur stdDeviation="5"/>
<feComposite in2="hardAlpha" operator="arithmetic" k2="-1" k3="1"/>
<feColorMatrix type="matrix" values="0 0 0 0 0 0 0 0 0 0 0 0 0 0 0 0 0 0 0.5 0"/>
<feBlend mode="normal" in2="shape" result="effect2_innerShadow_39_61"/>
</filter>
<filter id="filter1_d_39_61" x="0" y="32.4307" width="79.3042" height="80.7383" filterUnits="userSpaceOnUse" color-interpolation-filters="sRGB">
<feFlood flood-opacity="0" result="BackgroundImageFix"/>
<feColorMatrix in="SourceAlpha" type="matrix" values="0 0 0 0 0 0 0 0 0 0 0 0 0 0 0 0 0 0 127 0" result="hardAlpha"/>
<feOffset dx="1" dy="15"/>
<feGaussianBlur stdDeviation="12.5"/>
<feComposite in2="hardAlpha" operator="out"/>
<feColorMatrix type="matrix" values="0 0 0 0 0 0 0 0 0 0 0 0 0 0 0 0 0 0 0.25 0"/>
<feBlend mode="normal" in2="BackgroundImageFix" result="effect1_dropShadow_39_61"/>
<feBlend mode="normal" in="SourceGraphic" in2="effect1_dropShadow_39_61" result="shape"/>
</filter>
<filter id="filter2_d_39_61" x="56.6479" y="40.2617" width="74.3521" height="60.7383" filterUnits="userSpaceOnUse" color-interpolation-filters="sRGB">
<feFlood flood-opacity="0" result="BackgroundImageFix"/>
<feColorMatrix in="SourceAlpha" type="matrix" values="0 0 0 0 0 0 0 0 0 0 0 0 0 0 0 0 0 0 127 0" result="hardAlpha"/>
<feOffset dx="-7" dy="6"/>
<feGaussianBlur stdDeviation="7.5"/>
<feComposite in2="hardAlpha" operator="out"/>
<feColorMatrix type="matrix" values="0 0 0 0 0 0 0 0 0 0 0 0 0 0 0 0 0 0 0.25 0"/>
<feBlend mode="normal" in2="BackgroundImageFix" result="effect1_dropShadow_39_61"/>
<feBlend mode="normal" in="SourceGraphic" in2="effect1_dropShadow_39_61" result="shape"/>
</filter>
</defs>
</svg>
