<svg width="128" height="128" viewBox="0 0 128 128" fill="none" xmlns="http://www.w3.org/2000/svg">
<g filter="url(#filter0_d_41_112)">
<path d="M64 14L70.965 31.2321L84.3368 18.3227L83.6908 36.8979L101.157 30.5435L93.0118 47.25L111.553 48.5491L97.3165 60.4983L113.726 69.2264L95.8604 74.3521L107.301 89L88.8953 86.4159L93.3893 104.451L77.6257 94.6038L74.3956 112.907L64 97.5L53.6044 112.907L50.3743 94.6038L34.6107 104.451L39.1047 86.4159L20.6987 89L32.1396 74.3521L14.2739 69.2264L30.6835 60.4983L16.4472 48.5491L34.9882 47.25L26.8428 30.5435L44.3092 36.8979L43.6632 18.3227L57.035 31.2321L64 14Z" fill="#FFD84F"/>
</g>
<g filter="url(#filter1_f_41_112)">
<ellipse cx="64.2288" cy="63.9998" rx="33.3333" ry="33.3333" fill="#FFED47"/>
</g>
<g filter="url(#filter2_f_41_112)">
<ellipse cx="64.2288" cy="63.9998" rx="33.3333" ry="33.3333" fill="#FFED47"/>
</g>
<defs>
<filter id="filter0_d_41_112" x="9.27344" y="11" width="109.453" height="108.907" filterUnits="userSpaceOnUse" color-interpolation-filters="sRGB">
<feFlood flood-opacity="0" result="BackgroundImageFix"/>
<feColorMatrix in="SourceAlpha" type="matrix" values="0 0 0 0 0 0 0 0 0 0 0 0 0 0 0 0 0 0 127 0" result="hardAlpha"/>
<feOffset dy="2"/>
<feGaussianBlur stdDeviation="2.5"/>
<feComposite in2="hardAlpha" operator="out"/>
<feColorMatrix type="matrix" values="0 0 0 0 0 0 0 0 0 0 0 0 0 0 0 0 0 0 0.25 0"/>
<feBlend mode="normal" in2="BackgroundImageFix" result="effect1_dropShadow_41_112"/>
<feBlend mode="normal" in="SourceGraphic" in2="effect1_dropShadow_41_112" result="shape"/>
</filter>
<filter id="filter1_f_41_112" x="0.895508" y="0.666504" width="126.667" height="126.667" filterUnits="userSpaceOnUse" color-interpolation-filters="sRGB">
<feFlood flood-opacity="0" result="BackgroundImageFix"/>
<feBlend mode="normal" in="SourceGraphic" in2="BackgroundImageFix" result="shape"/>
<feGaussianBlur stdDeviation="15" result="effect1_foregroundBlur_41_112"/>
</filter>
<filter id="filter2_f_41_112" x="0.895508" y="0.666504" width="126.667" height="126.667" filterUnits="userSpaceOnUse" color-interpolation-filters="sRGB">
<feFlood flood-opacity="0" result="BackgroundImageFix"/>
<feBlend mode="normal" in="SourceGraphic" in2="BackgroundImageFix" result="shape"/>
<feGaussianBlur stdDeviation="15" result="effect1_foregroundBlur_41_112"/>
</filter>
</defs>
</svg>
