<svg width="47" height="28" viewBox="0 0 47 28" fill="none" xmlns="http://www.w3.org/2000/svg">
<g filter="url(#filter0_d_247_127)">
<path fill-rule="evenodd" clip-rule="evenodd" d="M26.6631 8.74424L23.5101 0.943604L20.3572 8.74424L14.304 2.90042L14.5964 11.3091L6.68969 8.43253L10.377 15.9953L1.9838 16.5834L8.42834 21.9925L1 25.9436H46.0202L38.5919 21.9925L45.0364 16.5834L36.6432 15.9953L40.3305 8.43253L32.4238 11.3091L32.7162 2.90042L26.6631 8.74424Z" fill="#FFD84F"/>
</g>
<g filter="url(#filter1_f_247_127)">
<path fill-rule="evenodd" clip-rule="evenodd" d="M38.9005 23.5782C38.9005 15.0779 32.0097 8.18701 23.5093 8.18701C15.009 8.18701 8.11816 15.0779 8.11816 23.5782H38.9005Z" fill="#FFED47"/>
</g>
<g filter="url(#filter2_f_247_127)">
<path fill-rule="evenodd" clip-rule="evenodd" d="M38.9005 23.5782C38.9005 15.0779 32.0097 8.18701 23.5093 8.18701C15.009 8.18701 8.11816 15.0779 8.11816 23.5782H38.9005Z" fill="#FFED47"/>
</g>
<path d="M2.4568 3.72934V10.0036C2.4568 10.1413 2.56845 10.253 2.70616 10.253H3.86983C4.00753 10.253 4.11918 10.1413 4.11918 10.0036V3.72934H5.07628C5.5206 3.72934 5.74311 3.19216 5.42894 2.87797L3.64065 1.08968C3.44588 0.894911 3.13011 0.894911 2.93536 1.08968L1.14707 2.87797C0.832898 3.19214 1.05541 3.72934 1.49972 3.72934H2.4568Z" fill="#FFD84F"/>
<path d="M18.4578 17.008L15.6524 24H13.3834L17.6255 15.0227H19.0559L18.4578 17.008ZM18.5318 24L18.1372 16.7984L18.1865 15.0227H19.5492L20.6837 24H18.5318ZM19.1669 20.652L18.8709 22.3229H15.0852L15.3811 20.652H19.1669ZM23.9823 15.0227H25.5916L25.8691 21.2501L28.3169 15.0227H30.0371L26.1404 24H24.7777L23.9823 15.0227ZM22.928 15.0227H24.6544L23.7727 21.9961L23.4274 24H21.3742L22.928 15.0227ZM29.2972 15.0227H31.036L29.4822 24H27.4105L27.7989 21.8173L29.2972 15.0227Z" fill="#334E5E"/>
<defs>
<filter id="filter0_d_247_127" x="0.240815" y="0.488092" width="46.5389" height="26.5184" filterUnits="userSpaceOnUse" color-interpolation-filters="sRGB">
<feFlood flood-opacity="0" result="BackgroundImageFix"/>
<feColorMatrix in="SourceAlpha" type="matrix" values="0 0 0 0 0 0 0 0 0 0 0 0 0 0 0 0 0 0 127 0" result="hardAlpha"/>
<feOffset dy="0.303674"/>
<feGaussianBlur stdDeviation="0.379593"/>
<feComposite in2="hardAlpha" operator="out"/>
<feColorMatrix type="matrix" values="0 0 0 0 0 0 0 0 0 0 0 0 0 0 0 0 0 0 0.25 0"/>
<feBlend mode="normal" in2="BackgroundImageFix" result="effect1_dropShadow_247_127"/>
<feBlend mode="normal" in="SourceGraphic" in2="effect1_dropShadow_247_127" result="shape"/>
</filter>
<filter id="filter1_f_247_127" x="7.35898" y="7.42783" width="32.3006" height="16.9095" filterUnits="userSpaceOnUse" color-interpolation-filters="sRGB">
<feFlood flood-opacity="0" result="BackgroundImageFix"/>
<feBlend mode="normal" in="SourceGraphic" in2="BackgroundImageFix" result="shape"/>
<feGaussianBlur stdDeviation="0.379593" result="effect1_foregroundBlur_247_127"/>
</filter>
<filter id="filter2_f_247_127" x="5.84061" y="5.90946" width="35.3373" height="19.9462" filterUnits="userSpaceOnUse" color-interpolation-filters="sRGB">
<feFlood flood-opacity="0" result="BackgroundImageFix"/>
<feBlend mode="normal" in="SourceGraphic" in2="BackgroundImageFix" result="shape"/>
<feGaussianBlur stdDeviation="1.13878" result="effect1_foregroundBlur_247_127"/>
</filter>
</defs>
</svg>
