<svg width="47" height="28" viewBox="0 0 47 28" fill="none" xmlns="http://www.w3.org/2000/svg">
<g style="mix-blend-mode:luminosity">
<g filter="url(#filter0_d_303_79)">
<path fill-rule="evenodd" clip-rule="evenodd" d="M26.6631 8.80064L23.5101 1L20.3572 8.80064L14.304 2.95682L14.5964 11.3655L6.68969 8.48893L10.377 16.0517L1.9838 16.6398L8.42834 22.0489L1 26H46.0202L38.5919 22.0489L45.0364 16.6398L36.6432 16.0517L40.3305 8.48893L32.4238 11.3655L32.7162 2.95682L26.6631 8.80064Z" fill="#FFD84F"/>
</g>
<g filter="url(#filter1_f_303_79)">
<path fill-rule="evenodd" clip-rule="evenodd" d="M38.9005 23.6346C38.9005 15.1343 32.0097 8.24341 23.5093 8.24341C15.009 8.24341 8.11816 15.1343 8.11816 23.6346H38.9005Z" fill="#FFED47"/>
</g>
<g filter="url(#filter2_f_303_79)">
<path fill-rule="evenodd" clip-rule="evenodd" d="M38.9005 23.6346C38.9005 15.1343 32.0097 8.24341 23.5093 8.24341C15.009 8.24341 8.11816 15.1343 8.11816 23.6346H38.9005Z" fill="#FFED47"/>
</g>
<path d="M2.4568 3.78574V10.06C2.4568 10.1977 2.56845 10.3094 2.70616 10.3094H3.86983C4.00753 10.3094 4.11918 10.1977 4.11918 10.06V3.78574H5.07628C5.5206 3.78574 5.74311 3.24856 5.42894 2.93437L3.64065 1.14608C3.44588 0.951308 3.13011 0.951308 2.93536 1.14608L1.14707 2.93437C0.832898 3.24854 1.05541 3.78574 1.49972 3.78574H2.4568Z" fill="#FFD84F"/>
<path d="M18.4578 17.0644L15.6524 24.0564H13.3834L17.6255 15.0791H19.0559L18.4578 17.0644ZM18.5318 24.0564L18.1372 16.8548L18.1865 15.0791H19.5492L20.6837 24.0564H18.5318ZM19.1669 20.7084L18.8709 22.3793H15.0852L15.3811 20.7084H19.1669ZM23.9823 15.0791H25.5916L25.8691 21.3065L28.3169 15.0791H30.0371L26.1404 24.0564H24.7777L23.9823 15.0791ZM22.928 15.0791H24.6544L23.7727 22.0525L23.4274 24.0564H21.3742L22.928 15.0791ZM29.2972 15.0791H31.036L29.4822 24.0564H27.4105L27.7989 21.8737L29.2972 15.0791Z" fill="#334E5E"/>
</g>
<defs>
<filter id="filter0_d_303_79" x="0.240815" y="0.544489" width="46.5389" height="26.5184" filterUnits="userSpaceOnUse" color-interpolation-filters="sRGB">
<feFlood flood-opacity="0" result="BackgroundImageFix"/>
<feColorMatrix in="SourceAlpha" type="matrix" values="0 0 0 0 0 0 0 0 0 0 0 0 0 0 0 0 0 0 127 0" result="hardAlpha"/>
<feOffset dy="0.303674"/>
<feGaussianBlur stdDeviation="0.379593"/>
<feComposite in2="hardAlpha" operator="out"/>
<feColorMatrix type="matrix" values="0 0 0 0 0 0 0 0 0 0 0 0 0 0 0 0 0 0 0.25 0"/>
<feBlend mode="normal" in2="BackgroundImageFix" result="effect1_dropShadow_303_79"/>
<feBlend mode="normal" in="SourceGraphic" in2="effect1_dropShadow_303_79" result="shape"/>
</filter>
<filter id="filter1_f_303_79" x="7.35898" y="7.48422" width="32.3006" height="16.9095" filterUnits="userSpaceOnUse" color-interpolation-filters="sRGB">
<feFlood flood-opacity="0" result="BackgroundImageFix"/>
<feBlend mode="normal" in="SourceGraphic" in2="BackgroundImageFix" result="shape"/>
<feGaussianBlur stdDeviation="0.379593" result="effect1_foregroundBlur_303_79"/>
</filter>
<filter id="filter2_f_303_79" x="5.84061" y="5.96585" width="35.3373" height="19.9462" filterUnits="userSpaceOnUse" color-interpolation-filters="sRGB">
<feFlood flood-opacity="0" result="BackgroundImageFix"/>
<feBlend mode="normal" in="SourceGraphic" in2="BackgroundImageFix" result="shape"/>
<feGaussianBlur stdDeviation="1.13878" result="effect1_foregroundBlur_303_79"/>
</filter>
</defs>
</svg>
