<svg width="8" height="11" viewBox="0 0 8 11" fill="none" xmlns="http://www.w3.org/2000/svg">
<path d="M7.72058 10.2837C7.66253 10.3418 7.58382 10.3744 7.50175 10.3744C7.41968 10.3744 7.34098 10.3419 7.28296 10.2838L4.00169 7.00256L0.718751 10.2855C0.66891 10.3352 0.603619 10.3665 0.53365 10.3741C0.463682 10.3817 0.393216 10.3653 0.333879 10.3274C0.274542 10.2896 0.229879 10.2327 0.207258 10.1661C0.184637 10.0994 0.185411 10.0271 0.209451 9.96091L3.7128 0.332517C3.73444 0.272679 3.77399 0.220957 3.82608 0.184394C3.87816 0.147832 3.94024 0.128206 4.00386 0.12819C4.06748 0.128174 4.12955 0.147768 4.18162 0.184305C4.23368 0.220841 4.27321 0.272542 4.29482 0.332369L7.7933 9.959C7.81348 10.0143 7.81743 10.0743 7.8047 10.1318C7.79197 10.1893 7.76222 10.242 7.72058 10.2837ZM1.26788 8.86136L3.78305 6.34619C3.84109 6.28815 3.91981 6.25552 4.00188 6.2555C4.08394 6.25548 4.16264 6.28806 4.22066 6.34608L6.73456 8.85998L4.00268 1.34377L1.26788 8.86136Z" fill="white"/>
</svg>
