<svg width="97" height="59" viewBox="0 0 97 59" fill="none" xmlns="http://www.w3.org/2000/svg">
<path d="M32.8242 49.2324V55.1592H31.5527V47.7627H32.7559L32.8242 49.2324ZM32.5645 51.1807L31.9766 51.1602C31.9811 50.6543 32.0472 50.1872 32.1748 49.7588C32.3024 49.3258 32.4915 48.9499 32.7422 48.6309C32.9928 48.3118 33.305 48.0658 33.6787 47.8926C34.0524 47.7148 34.4854 47.626 34.9775 47.626C35.3239 47.626 35.6429 47.6761 35.9346 47.7764C36.2262 47.8721 36.4792 48.0247 36.6934 48.2344C36.9076 48.444 37.0739 48.7129 37.1924 49.041C37.3109 49.3691 37.3701 49.7656 37.3701 50.2305V55.1592H36.1055V50.292C36.1055 49.9046 36.0394 49.5947 35.9072 49.3623C35.7796 49.1299 35.5973 48.9613 35.3604 48.8564C35.1234 48.7471 34.8454 48.6924 34.5264 48.6924C34.1527 48.6924 33.8405 48.7585 33.5898 48.8906C33.3392 49.0228 33.1387 49.2051 32.9883 49.4375C32.8379 49.6699 32.7285 49.9365 32.6602 50.2373C32.5964 50.5335 32.5645 50.848 32.5645 51.1807ZM37.3564 50.4834L36.5088 50.7432C36.5133 50.3376 36.5794 49.9479 36.707 49.5742C36.8392 49.2005 37.0283 48.8678 37.2744 48.5762C37.5251 48.2845 37.8327 48.0544 38.1973 47.8857C38.5618 47.7126 38.9788 47.626 39.4482 47.626C39.8447 47.626 40.1956 47.6784 40.501 47.7832C40.8109 47.888 41.0706 48.0498 41.2803 48.2686C41.4945 48.4827 41.6562 48.7585 41.7656 49.0957C41.875 49.4329 41.9297 49.834 41.9297 50.2988V55.1592H40.6582V50.2852C40.6582 49.8704 40.5921 49.5492 40.46 49.3213C40.3324 49.0889 40.1501 48.9271 39.9131 48.8359C39.6807 48.7402 39.4027 48.6924 39.0791 48.6924C38.8011 48.6924 38.555 48.7402 38.3408 48.8359C38.1266 48.9316 37.9466 49.0638 37.8008 49.2324C37.6549 49.3965 37.5433 49.5856 37.4658 49.7998C37.3929 50.014 37.3564 50.2419 37.3564 50.4834ZM45.1084 49.1846V58.0029H43.8369V47.7627H44.999L45.1084 49.1846ZM50.0918 51.3994V51.543C50.0918 52.0807 50.028 52.5798 49.9004 53.04C49.7728 53.4958 49.5859 53.8923 49.3398 54.2295C49.0983 54.5667 48.7998 54.8288 48.4443 55.0156C48.0889 55.2025 47.681 55.2959 47.2207 55.2959C46.7513 55.2959 46.3366 55.2184 45.9766 55.0635C45.6165 54.9085 45.3112 54.6829 45.0605 54.3867C44.8099 54.0905 44.6094 53.735 44.459 53.3203C44.3132 52.9056 44.2129 52.4385 44.1582 51.9189V51.1533C44.2129 50.6064 44.3154 50.1165 44.4658 49.6836C44.6162 49.2507 44.8145 48.8815 45.0605 48.5762C45.3112 48.2663 45.6143 48.0316 45.9697 47.8721C46.3252 47.708 46.7354 47.626 47.2002 47.626C47.665 47.626 48.0775 47.7171 48.4375 47.8994C48.7975 48.0771 49.1006 48.3324 49.3467 48.665C49.5928 48.9977 49.7773 49.3965 49.9004 49.8613C50.028 50.3216 50.0918 50.8343 50.0918 51.3994ZM48.8203 51.543V51.3994C48.8203 51.0303 48.7816 50.6839 48.7041 50.3604C48.6266 50.0322 48.5059 49.7451 48.3418 49.499C48.1823 49.2484 47.9772 49.0524 47.7266 48.9111C47.4759 48.7653 47.1774 48.6924 46.8311 48.6924C46.512 48.6924 46.234 48.7471 45.9971 48.8564C45.7646 48.9658 45.5664 49.1139 45.4023 49.3008C45.2383 49.4831 45.1038 49.6927 44.999 49.9297C44.8988 50.1621 44.8236 50.4036 44.7734 50.6543V52.4248C44.8646 52.7438 44.9922 53.0446 45.1562 53.3271C45.3203 53.6051 45.5391 53.8307 45.8125 54.0039C46.0859 54.1725 46.43 54.2568 46.8447 54.2568C47.1865 54.2568 47.4805 54.1862 47.7266 54.0449C47.9772 53.8991 48.1823 53.7008 48.3418 53.4502C48.5059 53.1995 48.6266 52.9124 48.7041 52.5889C48.7816 52.2607 48.8203 51.9121 48.8203 51.543ZM52.9697 44.6592V55.1592H51.7051V44.6592H52.9697ZM52.6689 51.1807L52.1426 51.1602C52.1471 50.6543 52.2223 50.1872 52.3682 49.7588C52.514 49.3258 52.7191 48.9499 52.9834 48.6309C53.2477 48.3118 53.5622 48.0658 53.9268 47.8926C54.2959 47.7148 54.7038 47.626 55.1504 47.626C55.515 47.626 55.8431 47.6761 56.1348 47.7764C56.4264 47.8721 56.6748 48.027 56.8799 48.2412C57.0895 48.4554 57.249 48.7334 57.3584 49.0752C57.4678 49.4124 57.5225 49.8249 57.5225 50.3125V55.1592H56.251V50.2988C56.251 49.9115 56.194 49.6016 56.0801 49.3691C55.9661 49.1322 55.7998 48.9613 55.5811 48.8564C55.3623 48.7471 55.0934 48.6924 54.7744 48.6924C54.46 48.6924 54.1729 48.7585 53.9131 48.8906C53.6579 49.0228 53.4368 49.2051 53.25 49.4375C53.0677 49.6699 52.9242 49.9365 52.8193 50.2373C52.7191 50.5335 52.6689 50.848 52.6689 51.1807Z" fill="white"/>
<path d="M81.9225 4.78651C79.2003 4.78651 76.5896 5.86789 74.6647 7.79276C72.7399 9.71763 71.6585 12.3283 71.6585 15.0505C71.6585 15.5949 71.4422 16.1171 71.0572 16.502C70.6722 16.887 70.1501 17.1033 69.6057 17.1033C69.0612 17.1033 68.5391 16.887 68.1541 16.502C67.7692 16.1171 67.5529 15.5949 67.5529 15.0505C67.5529 12.2085 68.3956 9.43025 69.9746 7.06718C71.5535 4.70412 73.7978 2.86233 76.4235 1.77473C79.0492 0.687134 81.9384 0.402569 84.7258 0.957022C87.5132 1.51148 90.0737 2.88004 92.0833 4.88967C94.0929 6.89929 95.4615 9.4597 96.0159 12.2471C96.5704 15.0346 96.2858 17.9238 95.1982 20.5495C94.1106 23.1752 92.2688 25.4194 89.9058 26.9984C87.5427 28.5773 84.7645 29.4201 81.9225 29.4201H32.6553C32.1109 29.4201 31.5888 29.2038 31.2038 28.8188C30.8188 28.4338 30.6025 27.9117 30.6025 27.3673C30.6025 26.8228 30.8188 26.3007 31.2038 25.9157C31.5888 25.5308 32.1109 25.3145 32.6553 25.3145H81.9225C84.6446 25.3145 87.2553 24.2331 89.1802 22.3082C91.1051 20.3834 92.1864 17.7727 92.1864 15.0505C92.1864 12.3283 91.1051 9.71763 89.1802 7.79276C87.2553 5.86789 84.6446 4.78651 81.9225 4.78651ZM53.1833 8.8921C52.0944 8.8921 51.0502 9.32465 50.2802 10.0946C49.5103 10.8645 49.0777 11.9088 49.0777 12.9977C49.0777 13.5421 48.8614 14.0643 48.4765 14.4492C48.0915 14.8342 47.5693 15.0505 47.0249 15.0505C46.4805 15.0505 45.9583 14.8342 45.5734 14.4492C45.1884 14.0643 44.9721 13.5421 44.9721 12.9977C44.9721 11.3737 45.4537 9.78613 46.3559 8.4358C47.2582 7.08548 48.5406 6.03303 50.041 5.41155C51.5414 4.79006 53.1924 4.62745 54.7852 4.94428C56.378 5.26111 57.8411 6.04315 58.9895 7.19151C60.1378 8.33986 60.9199 9.80296 61.2367 11.3958C61.5535 12.9886 61.3909 14.6396 60.7694 16.14C60.148 17.6404 59.0955 18.9228 57.7452 19.825C56.3949 20.7273 54.8073 21.2089 53.1833 21.2089H32.6553C32.1109 21.2089 31.5888 20.9926 31.2038 20.6076C30.8188 20.2227 30.6025 19.7005 30.6025 19.1561C30.6025 18.6116 30.8188 18.0895 31.2038 17.7045C31.5888 17.3196 32.1109 17.1033 32.6553 17.1033H53.1833C54.2722 17.1033 55.3164 16.6707 56.0864 15.9008C56.8563 15.1308 57.2889 14.0866 57.2889 12.9977C57.2889 11.9088 56.8563 10.8645 56.0864 10.0946C55.3164 9.32465 54.2722 8.8921 53.1833 8.8921ZM30.6025 35.5785C30.6025 35.034 30.8188 34.5119 31.2038 34.1269C31.5888 33.7419 32.1109 33.5257 32.6553 33.5257H73.8837C76.3197 33.5257 78.7011 34.248 80.7265 35.6014C82.752 36.9548 84.3307 38.8784 85.2629 41.129C86.1952 43.3796 86.4391 45.8561 85.9638 48.2453C85.4886 50.6345 84.3155 52.8292 82.593 54.5517C80.8704 56.2743 78.6758 57.4473 76.2866 57.9226C73.8974 58.3978 71.4209 58.1539 69.1703 57.2217C66.9197 56.2894 64.9961 54.7108 63.6427 52.6853C62.2893 50.6598 61.5669 48.2785 61.5669 45.8424C61.5669 45.298 61.7832 44.7759 62.1682 44.3909C62.5531 44.0059 63.0753 43.7896 63.6197 43.7896C64.1642 43.7896 64.6863 44.0059 65.0713 44.3909C65.4562 44.7759 65.6725 45.298 65.6725 45.8424C65.6725 47.4665 66.1541 49.054 67.0564 50.4043C67.9586 51.7547 69.241 52.8071 70.7414 53.4286C72.2418 54.0501 73.8928 54.2127 75.4856 53.8959C77.0784 53.579 78.5415 52.797 79.6899 51.6486C80.8382 50.5003 81.6203 49.0372 81.9371 47.4444C82.2539 45.8516 82.0913 44.2006 81.4698 42.7002C80.8484 41.1998 79.7959 39.9173 78.4456 39.0151C77.0953 38.1128 75.5077 37.6313 73.8837 37.6313H32.6553C32.1109 37.6313 31.5888 37.415 31.2038 37.03C30.8188 36.645 30.6025 36.1229 30.6025 35.5785Z" fill="#EBF7FF" fill-opacity="0.1"/>
<path d="M0.503906 17.5C0.503906 10.5964 6.10035 5 13.0039 5C19.9075 5 25.5039 10.5964 25.5039 17.5C25.5039 24.4036 19.9075 30 13.0039 30C6.10035 30 0.503906 24.4036 0.503906 17.5Z" fill="#EBF7FF" fill-opacity="0.1"/>
</svg>
