<svg width="96" height="58" viewBox="0 0 96 58" fill="none" xmlns="http://www.w3.org/2000/svg">
<path d="M32.3203 48.5515V54.4783H31.0488V47.0818H32.252L32.3203 48.5515ZM32.0605 50.4998L31.4727 50.4792C31.4772 49.9734 31.5433 49.5063 31.6709 49.0779C31.7985 48.6449 31.9876 48.269 32.2383 47.95C32.4889 47.6309 32.8011 47.3848 33.1748 47.2117C33.5485 47.0339 33.9814 46.9451 34.4736 46.9451C34.82 46.9451 35.139 46.9952 35.4307 47.0955C35.7223 47.1912 35.9753 47.3438 36.1895 47.5535C36.4036 47.7631 36.57 48.032 36.6885 48.3601C36.807 48.6882 36.8662 49.0847 36.8662 49.5496V54.4783H35.6016V49.6111C35.6016 49.2237 35.5355 48.9138 35.4033 48.6814C35.2757 48.449 35.0934 48.2804 34.8564 48.1755C34.6195 48.0662 34.3415 48.0115 34.0225 48.0115C33.6488 48.0115 33.3366 48.0776 33.0859 48.2097C32.8353 48.3419 32.6348 48.5242 32.4844 48.7566C32.334 48.989 32.2246 49.2556 32.1562 49.5564C32.0924 49.8526 32.0605 50.1671 32.0605 50.4998ZM36.8525 49.8025L36.0049 50.0623C36.0094 49.6567 36.0755 49.267 36.2031 48.8933C36.3353 48.5196 36.5244 48.1869 36.7705 47.8953C37.0212 47.6036 37.3288 47.3735 37.6934 47.2048C38.0579 47.0317 38.4749 46.9451 38.9443 46.9451C39.3408 46.9451 39.6917 46.9975 39.9971 47.1023C40.307 47.2071 40.5667 47.3689 40.7764 47.5876C40.9906 47.8018 41.1523 48.0776 41.2617 48.4148C41.3711 48.752 41.4258 49.1531 41.4258 49.6179V54.4783H40.1543V49.6042C40.1543 49.1895 40.0882 48.8682 39.9561 48.6404C39.8285 48.408 39.6462 48.2462 39.4092 48.155C39.1768 48.0593 38.8988 48.0115 38.5752 48.0115C38.2972 48.0115 38.0511 48.0593 37.8369 48.155C37.6227 48.2507 37.4427 48.3829 37.2969 48.5515C37.151 48.7156 37.0394 48.9047 36.9619 49.1189C36.889 49.3331 36.8525 49.561 36.8525 49.8025ZM44.6045 48.5037V57.322H43.333V47.0818H44.4951L44.6045 48.5037ZM49.5879 50.7185V50.8621C49.5879 51.3998 49.5241 51.8988 49.3965 52.3591C49.2689 52.8149 49.082 53.2113 48.8359 53.5486C48.5944 53.8858 48.2959 54.1479 47.9404 54.3347C47.585 54.5216 47.1771 54.615 46.7168 54.615C46.2474 54.615 45.8327 54.5375 45.4727 54.3826C45.1126 54.2276 44.8073 54.002 44.5566 53.7058C44.306 53.4096 44.1055 53.0541 43.9551 52.6394C43.8092 52.2247 43.709 51.7576 43.6543 51.238V50.4724C43.709 49.9255 43.8115 49.4356 43.9619 49.0027C44.1123 48.5697 44.3105 48.2006 44.5566 47.8953C44.8073 47.5854 45.1104 47.3507 45.4658 47.1912C45.8213 47.0271 46.2314 46.9451 46.6963 46.9451C47.1611 46.9451 47.5736 47.0362 47.9336 47.2185C48.2936 47.3962 48.5967 47.6514 48.8428 47.9841C49.0889 48.3168 49.2734 48.7156 49.3965 49.1804C49.5241 49.6407 49.5879 50.1534 49.5879 50.7185ZM48.3164 50.8621V50.7185C48.3164 50.3494 48.2777 50.003 48.2002 49.6794C48.1227 49.3513 48.002 49.0642 47.8379 48.8181C47.6784 48.5675 47.4733 48.3715 47.2227 48.2302C46.972 48.0844 46.6735 48.0115 46.3271 48.0115C46.0081 48.0115 45.7301 48.0662 45.4932 48.1755C45.2607 48.2849 45.0625 48.433 44.8984 48.6199C44.7344 48.8022 44.5999 49.0118 44.4951 49.2488C44.3949 49.4812 44.3197 49.7227 44.2695 49.9734V51.7439C44.3607 52.0629 44.4883 52.3637 44.6523 52.6462C44.8164 52.9242 45.0352 53.1498 45.3086 53.323C45.582 53.4916 45.9261 53.5759 46.3408 53.5759C46.6826 53.5759 46.9766 53.5053 47.2227 53.364C47.4733 53.2182 47.6784 53.0199 47.8379 52.7693C48.002 52.5186 48.1227 52.2315 48.2002 51.908C48.2777 51.5798 48.3164 51.2312 48.3164 50.8621ZM52.4658 43.9783V54.4783H51.2012V43.9783H52.4658ZM52.165 50.4998L51.6387 50.4792C51.6432 49.9734 51.7184 49.5063 51.8643 49.0779C52.0101 48.6449 52.2152 48.269 52.4795 47.95C52.7438 47.6309 53.0583 47.3848 53.4229 47.2117C53.792 47.0339 54.1999 46.9451 54.6465 46.9451C55.0111 46.9451 55.3392 46.9952 55.6309 47.0955C55.9225 47.1912 56.1709 47.3461 56.376 47.5603C56.5856 47.7745 56.7451 48.0525 56.8545 48.3943C56.9639 48.7315 57.0186 49.144 57.0186 49.6316V54.4783H55.7471V49.6179C55.7471 49.2306 55.6901 48.9207 55.5762 48.6882C55.4622 48.4513 55.2959 48.2804 55.0771 48.1755C54.8584 48.0662 54.5895 48.0115 54.2705 48.0115C53.9561 48.0115 53.6689 48.0776 53.4092 48.2097C53.154 48.3419 52.9329 48.5242 52.7461 48.7566C52.5638 48.989 52.4202 49.2556 52.3154 49.5564C52.2152 49.8526 52.165 50.1671 52.165 50.4998Z" fill="white"/>
<path d="M81.4185 4.1056C78.6964 4.1056 76.0857 5.18698 74.1608 7.11185C72.2359 9.03672 71.1546 11.6474 71.1546 14.3696C71.1546 14.914 70.9383 15.4362 70.5533 15.8211C70.1683 16.2061 69.6462 16.4224 69.1018 16.4224C68.5573 16.4224 68.0352 16.2061 67.6502 15.8211C67.2652 15.4362 67.049 14.914 67.049 14.3696C67.049 11.5275 67.8917 8.74934 69.4707 6.38627C71.0496 4.02321 73.2939 2.18142 75.9196 1.09383C78.5452 0.0062261 81.4345 -0.278339 84.2219 0.276114C87.0093 0.830567 89.5698 2.19914 91.5794 4.20876C93.589 6.21838 94.9576 8.77879 95.512 11.5662C96.0665 14.3536 95.7819 17.2429 94.6943 19.8686C93.6067 22.4943 91.7649 24.7385 89.4019 26.3174C87.0388 27.8964 84.2606 28.7392 81.4185 28.7392H32.1514C31.607 28.7392 31.0849 28.5229 30.6999 28.1379C30.3149 27.7529 30.0986 27.2308 30.0986 26.6864C30.0986 26.1419 30.3149 25.6198 30.6999 25.2348C31.0849 24.8498 31.607 24.6336 32.1514 24.6336H81.4185C84.1407 24.6336 86.7514 23.5522 88.6763 21.6273C90.6012 19.7024 91.6825 17.0918 91.6825 14.3696C91.6825 11.6474 90.6012 9.03672 88.6763 7.11185C86.7514 5.18698 84.1407 4.1056 81.4185 4.1056V4.1056ZM52.6794 8.21119C51.5905 8.21119 50.5463 8.64374 49.7763 9.41369C49.0064 10.1836 48.5738 11.2279 48.5738 12.3168C48.5738 12.8612 48.3575 13.3834 47.9726 13.7683C47.5876 14.1533 47.0654 14.3696 46.521 14.3696C45.9766 14.3696 45.4544 14.1533 45.0695 13.7683C44.6845 13.3834 44.4682 12.8612 44.4682 12.3168C44.4682 10.6928 44.9498 9.10522 45.852 7.7549C46.7543 6.40457 48.0367 5.35212 49.5371 4.73064C51.0375 4.10915 52.6885 3.94655 54.2813 4.26338C55.8741 4.58021 57.3372 5.36224 58.4856 6.5106C59.6339 7.65896 60.416 9.12205 60.7328 10.7149C61.0496 12.3077 60.887 13.9587 60.2655 15.4591C59.6441 16.9595 58.5916 18.2419 57.2413 19.1441C55.891 20.0464 54.3034 20.528 52.6794 20.528H32.1514C31.607 20.528 31.0849 20.3117 30.6999 19.9267C30.3149 19.5417 30.0986 19.0196 30.0986 18.4752C30.0986 17.9307 30.3149 17.4086 30.6999 17.0236C31.0849 16.6387 31.607 16.4224 32.1514 16.4224H52.6794C53.7683 16.4224 54.8125 15.9898 55.5825 15.2199C56.3524 14.4499 56.785 13.4057 56.785 12.3168C56.785 11.2279 56.3524 10.1836 55.5825 9.41369C54.8125 8.64374 53.7683 8.21119 52.6794 8.21119V8.21119ZM30.0986 34.8976C30.0986 34.3531 30.3149 33.831 30.6999 33.446C31.0849 33.061 31.607 32.8448 32.1514 32.8448H73.3798C75.8158 32.8448 78.1971 33.5671 80.2226 34.9205C82.2481 36.2739 83.8268 38.1975 84.759 40.4481C85.6912 42.6987 85.9352 45.1752 85.4599 47.5644C84.9847 49.9536 83.8116 52.1483 82.0891 53.8708C80.3665 55.5933 78.1719 56.7664 75.7827 57.2417C73.3935 57.7169 70.917 57.473 68.6664 56.5408C66.4158 55.6085 64.4922 54.0299 63.1388 52.0044C61.7854 49.9789 61.063 47.5976 61.063 45.1615C61.063 44.6171 61.2793 44.095 61.6643 43.71C62.0492 43.325 62.5714 43.1087 63.1158 43.1087C63.6602 43.1087 64.1824 43.325 64.5674 43.71C64.9523 44.095 65.1686 44.6171 65.1686 45.1615C65.1686 46.7856 65.6502 48.3731 66.5524 49.7234C67.4547 51.0737 68.7371 52.1262 70.2375 52.7477C71.7379 53.3692 73.3889 53.5318 74.9817 53.2149C76.5745 52.8981 78.0376 52.1161 79.186 50.9677C80.3343 49.8194 81.1164 48.3563 81.4332 46.7635C81.75 45.1706 81.5874 43.5196 80.9659 42.0192C80.3445 40.5189 79.292 39.2364 77.9417 38.3342C76.5914 37.4319 75.0038 36.9503 73.3798 36.9503H32.1514C31.607 36.9503 31.0849 36.7341 30.6999 36.3491C30.3149 35.9641 30.0986 35.442 30.0986 34.8976Z" fill="white" fill-opacity="0.1"/>
<path d="M0 16.8191C0 9.91553 5.59644 4.31909 12.5 4.31909V4.31909C19.4036 4.31909 25 9.91553 25 16.8191V16.8191C25 23.7227 19.4036 29.3191 12.5 29.3191V29.3191C5.59644 29.3191 0 23.7227 0 16.8191V16.8191Z" fill="white" fill-opacity="0.1"/>
</svg>
