<svg width="50" height="50" viewBox="0 0 50 50" fill="none" xmlns="http://www.w3.org/2000/svg">
<path d="M50 25C50 38.8071 38.8071 50 25 50V50C11.1929 50 4.79321e-06 38.8071 6.00027e-06 25V25C7.20732e-06 11.1929 11.1929 -3.39263e-06 25 -2.18557e-06V-2.18557e-06C38.8071 -9.78513e-07 50 11.1929 50 25V25Z" fill="#EBF7FF" fill-opacity="0.1"/>
<path d="M34.3356 35.2623C34.193 35.4049 33.9996 35.4851 33.798 35.4851C33.5964 35.4852 33.4031 35.4051 33.2606 35.2626L25.2 27.202L17.1353 35.2667C17.0128 35.3888 16.8524 35.4656 16.6806 35.4843C16.5087 35.503 16.3356 35.4626 16.1898 35.3697C16.0441 35.2768 15.9343 35.137 15.8788 34.9733C15.8232 34.8096 15.8251 34.6319 15.8842 34.4693L24.4903 10.8168C24.5434 10.6698 24.6406 10.5427 24.7686 10.4529C24.8965 10.3631 25.049 10.3149 25.2053 10.3148C25.3616 10.3148 25.5141 10.3629 25.642 10.4527C25.7699 10.5424 25.867 10.6694 25.9201 10.8164L34.5142 34.4646C34.5638 34.6006 34.5735 34.7478 34.5422 34.8892C34.511 35.0305 34.4379 35.1599 34.3356 35.2623ZM18.4842 31.7682L24.6629 25.5896C24.8054 25.447 24.9988 25.3669 25.2004 25.3668C25.402 25.3668 25.5953 25.4468 25.7379 25.5893L31.9134 31.7648L25.2024 13.3009L18.4842 31.7682Z" fill="white"/>
</svg>
